<?xml version="1.0" encoding="UTF-8" standalone="no"?>
<!DOCTYPE svg PUBLIC "-//W3C//DTD SVG 1.1//EN"
 "http://www.w3.org/Graphics/SVG/1.1/DTD/svg11.dtd">
<!-- Generated by graphviz version 2.26.3 (20100126.1600)
 -->
<!-- Title: test Pages: 1 -->
<svg width="2121pt" height="1764pt"
 viewBox="0.00 0.00 2120.67 1764.00" xmlns="http://www.w3.org/2000/svg" xmlns:xlink="http://www.w3.org/1999/xlink">
<g id="graph1" class="graph" transform="scale(1 1) rotate(0) translate(4 1760)">
<title>test</title>
<polygon fill="lightgoldenrodyellow" stroke="lightgoldenrodyellow" points="-4,5 -4,-1760 2117.67,-1760 2117.67,5 -4,5"/>
<g id="graph2" class="cluster"><title>cluster_GEOGRAPHY</title>
<polygon fill="lightgoldenrodyellow" stroke="black" points="797,-872 797,-1577 1013,-1577 1013,-872 797,-872"/>
<text text-anchor="middle" x="905" y="-1560.4" font-family="Times Roman,serif" font-size="14.00">GEOGRAPHY</text>
</g>
<g id="graph3" class="cluster"><title>cluster_IDENTITY</title>
<polygon fill="lightgoldenrodyellow" stroke="black" points="107,-800 107,-1400 789,-1400 789,-800 107,-800"/>
<text text-anchor="middle" x="448" y="-1383.4" font-family="Times Roman,serif" font-size="14.00">IDENTITY</text>
</g>
<g id="graph4" class="cluster"><title>cluster_PRODUCT</title>
<polygon fill="lightgoldenrodyellow" stroke="black" points="1599,-359 1599,-1748 2073,-1748 2073,-359 1599,-359"/>
<text text-anchor="middle" x="1836" y="-1731.4" font-family="Times Roman,serif" font-size="14.00">PRODUCT</text>
</g>
<g id="graph5" class="cluster"><title>cluster_SALES</title>
<polygon fill="lightgoldenrodyellow" stroke="black" points="1021,-8 1021,-1058 1559,-1058 1559,-8 1021,-8"/>
<text text-anchor="middle" x="1290" y="-1041.4" font-family="Times Roman,serif" font-size="14.00">SALES</text>
</g>
<!-- node1 -->
<g id="node1" class="node"><title>node1</title>
<polygon fill="white" stroke="black" points="200,-377 200,-645 496,-645 496,-377 200,-377"/>
<text text-anchor="middle" x="348" y="-628.4" font-family="Times Roman,serif" font-size="14.00">ak_discounts_scheme_details</text>
<polyline fill="none" stroke="black" points="200,-619 496,-619 "/>
<text text-anchor="start" x="208" y="-602.4" font-family="Times Roman,serif" font-size="14.00">&#45; id int [PA]</text>
<text text-anchor="start" x="208" y="-584.4" font-family="Times Roman,serif" font-size="14.00">&#45; code varchar(64) [U]</text>
<text text-anchor="start" x="208" y="-566.4" font-family="Times Roman,serif" font-size="14.00">&#45; name varchar(125)</text>
<text text-anchor="start" x="208" y="-548.4" font-family="Times Roman,serif" font-size="14.00">&#45; scheme_initiator_id int [FK]</text>
<text text-anchor="start" x="208" y="-530.4" font-family="Times Roman,serif" font-size="14.00">&#45; start_date date</text>
<text text-anchor="start" x="208" y="-512.4" font-family="Times Roman,serif" font-size="14.00">&#45; end_date date</text>
<text text-anchor="start" x="208" y="-494.4" font-family="Times Roman,serif" font-size="14.00">&#45; scheme_segment varchar(24)</text>
<text text-anchor="start" x="208" y="-476.4" font-family="Times Roman,serif" font-size="14.00">&#45; scheme_type varchar(24)</text>
<text text-anchor="start" x="208" y="-458.4" font-family="Times Roman,serif" font-size="14.00">&#45; scheme_sales_geography varchar(256)</text>
<text text-anchor="start" x="208" y="-440.4" font-family="Times Roman,serif" font-size="14.00">&#45; scheme_dealers_attributes varchar(24)</text>
<text text-anchor="start" x="208" y="-422.4" font-family="Times Roman,serif" font-size="14.00">&#45; scheme_details text</text>
<text text-anchor="start" x="208" y="-404.4" font-family="Times Roman,serif" font-size="14.00">&#45; created_at timestamp</text>
<text text-anchor="start" x="208" y="-386.4" font-family="Times Roman,serif" font-size="14.00">&#45; updated_at timestamp</text>
</g>
<!-- node21 -->
<g id="node2" class="node"><title>node21</title>
<polygon fill="white" stroke="black" points="0,-431 0,-591 182,-591 182,-431 0,-431"/>
<text text-anchor="middle" x="91" y="-574.4" font-family="Times Roman,serif" font-size="14.00">n5_ui_cards</text>
<polyline fill="none" stroke="black" points="0,-565 182,-565 "/>
<text text-anchor="start" x="8" y="-548.4" font-family="Times Roman,serif" font-size="14.00">&#45; id int [PA]</text>
<text text-anchor="start" x="8" y="-530.4" font-family="Times Roman,serif" font-size="14.00">&#45; user_id int [FK]</text>
<text text-anchor="start" x="8" y="-512.4" font-family="Times Roman,serif" font-size="14.00">&#45; name varchar(25)</text>
<text text-anchor="start" x="8" y="-494.4" font-family="Times Roman,serif" font-size="14.00">&#45; page varchar(25)</text>
<text text-anchor="start" x="8" y="-476.4" font-family="Times Roman,serif" font-size="14.00">&#45; state varchar(25)</text>
<text text-anchor="start" x="8" y="-458.4" font-family="Times Roman,serif" font-size="14.00">&#45; created_at timestamp</text>
<text text-anchor="start" x="8" y="-440.4" font-family="Times Roman,serif" font-size="14.00">&#45; updated_at timestamp</text>
</g>
<!-- node2 -->
<g id="node3" class="node"><title>node2</title>
<polygon fill="white" stroke="black" points="317,-1133 317,-1365 549,-1365 549,-1133 317,-1133"/>
<text text-anchor="middle" x="433" y="-1348.4" font-family="Times Roman,serif" font-size="14.00">ak_identity_regional_managers</text>
<polyline fill="none" stroke="black" points="317,-1339 549,-1339 "/>
<text text-anchor="start" x="325" y="-1322.4" font-family="Times Roman,serif" font-size="14.00">&#45; id int [PA]</text>
<text text-anchor="start" x="325" y="-1304.4" font-family="Times Roman,serif" font-size="14.00">&#45; code varchar(25) [U]</text>
<text text-anchor="start" x="325" y="-1286.4" font-family="Times Roman,serif" font-size="14.00">&#45; name varchar(125) [N]</text>
<text text-anchor="start" x="325" y="-1268.4" font-family="Times Roman,serif" font-size="14.00">&#45; region_id int [FK]</text>
<text text-anchor="start" x="325" y="-1250.4" font-family="Times Roman,serif" font-size="14.00">&#45; fincode varchar(25) [N]</text>
<text text-anchor="start" x="325" y="-1232.4" font-family="Times Roman,serif" font-size="14.00">&#45; hrcode varchar(25) [N]</text>
<text text-anchor="start" x="325" y="-1214.4" font-family="Times Roman,serif" font-size="14.00">&#45; mobileno varchar(15) [N]</text>
<text text-anchor="start" x="325" y="-1196.4" font-family="Times Roman,serif" font-size="14.00">&#45; mobilenoverified tinyint [N]</text>
<text text-anchor="start" x="325" y="-1178.4" font-family="Times Roman,serif" font-size="14.00">&#45; email varchar(125) [N]</text>
<text text-anchor="start" x="325" y="-1160.4" font-family="Times Roman,serif" font-size="14.00">&#45; created_at timestamp</text>
<text text-anchor="start" x="325" y="-1142.4" font-family="Times Roman,serif" font-size="14.00">&#45; updated_at timestamp</text>
</g>
<!-- node5 -->
<g id="node5" class="node"><title>node5</title>
<polygon fill="white" stroke="black" points="407,-809 407,-1095 685,-1095 685,-809 407,-809"/>
<text text-anchor="middle" x="546" y="-1078.4" font-family="Times Roman,serif" font-size="14.00">ak_identity_zonal_managers</text>
<polyline fill="none" stroke="black" points="407,-1069 685,-1069 "/>
<text text-anchor="start" x="415" y="-1052.4" font-family="Times Roman,serif" font-size="14.00">&#45; id int [PA]</text>
<text text-anchor="start" x="415" y="-1034.4" font-family="Times Roman,serif" font-size="14.00">&#45; code varchar(25) [U]</text>
<text text-anchor="start" x="415" y="-1016.4" font-family="Times Roman,serif" font-size="14.00">&#45; name varchar(125) [N]</text>
<text text-anchor="start" x="415" y="-998.4" font-family="Times Roman,serif" font-size="14.00">&#45; zone_id int [FK]</text>
<text text-anchor="start" x="415" y="-980.4" font-family="Times Roman,serif" font-size="14.00">&#45; scheme_reviewer_id int [FK]</text>
<text text-anchor="start" x="415" y="-962.4" font-family="Times Roman,serif" font-size="14.00">&#45; scheme_approver_id int [FK]</text>
<text text-anchor="start" x="415" y="-944.4" font-family="Times Roman,serif" font-size="14.00">&#45; scheme_payout_approver_id int [FK]</text>
<text text-anchor="start" x="415" y="-926.4" font-family="Times Roman,serif" font-size="14.00">&#45; fincode varchar(25) [N]</text>
<text text-anchor="start" x="415" y="-908.4" font-family="Times Roman,serif" font-size="14.00">&#45; hrcode varchar(25) [N]</text>
<text text-anchor="start" x="415" y="-890.4" font-family="Times Roman,serif" font-size="14.00">&#45; mobileno varchar(15) [N]</text>
<text text-anchor="start" x="415" y="-872.4" font-family="Times Roman,serif" font-size="14.00">&#45; mobilenoverified tinyint [N]</text>
<text text-anchor="start" x="415" y="-854.4" font-family="Times Roman,serif" font-size="14.00">&#45; email varchar(125) [N]</text>
<text text-anchor="start" x="415" y="-836.4" font-family="Times Roman,serif" font-size="14.00">&#45; created_at timestamp</text>
<text text-anchor="start" x="415" y="-818.4" font-family="Times Roman,serif" font-size="14.00">&#45; updated_at timestamp</text>
</g>
<!-- node2&#45;&gt;node5 -->
<g id="edge2" class="edge"><title>node2&#45;&gt;node5</title>
<path fill="none" stroke="black" d="M477.174,-1132.9C480.703,-1123.62 484.298,-1114.17 487.903,-1104.7"/>
<polygon fill="black" stroke="black" points="491.223,-1105.81 491.508,-1095.22 484.681,-1103.32 491.223,-1105.81"/>
</g>
<!-- node3 -->
<g id="node6" class="node"><title>node3</title>
<polygon fill="white" stroke="black" points="566.5,-1142 566.5,-1356 781.5,-1356 781.5,-1142 566.5,-1142"/>
<text text-anchor="middle" x="674" y="-1339.4" font-family="Times Roman,serif" font-size="14.00">ak_identity_sales_officers</text>
<polyline fill="none" stroke="black" points="566.5,-1330 781.5,-1330 "/>
<text text-anchor="start" x="574.5" y="-1313.4" font-family="Times Roman,serif" font-size="14.00">&#45; id int [PA]</text>
<text text-anchor="start" x="574.5" y="-1295.4" font-family="Times Roman,serif" font-size="14.00">&#45; code varchar(25) [U]</text>
<text text-anchor="start" x="574.5" y="-1277.4" font-family="Times Roman,serif" font-size="14.00">&#45; name varchar(125) [N]</text>
<text text-anchor="start" x="574.5" y="-1259.4" font-family="Times Roman,serif" font-size="14.00">&#45; fincode varchar(25) [N]</text>
<text text-anchor="start" x="574.5" y="-1241.4" font-family="Times Roman,serif" font-size="14.00">&#45; hrcode varchar(25) [N]</text>
<text text-anchor="start" x="574.5" y="-1223.4" font-family="Times Roman,serif" font-size="14.00">&#45; mobileno varchar(15) [N]</text>
<text text-anchor="start" x="574.5" y="-1205.4" font-family="Times Roman,serif" font-size="14.00">&#45; mobilenoverified tinyint [N]</text>
<text text-anchor="start" x="574.5" y="-1187.4" font-family="Times Roman,serif" font-size="14.00">&#45; email varchar(125) [N]</text>
<text text-anchor="start" x="574.5" y="-1169.4" font-family="Times Roman,serif" font-size="14.00">&#45; created_at timestamp</text>
<text text-anchor="start" x="574.5" y="-1151.4" font-family="Times Roman,serif" font-size="14.00">&#45; updated_at timestamp</text>
</g>
<!-- node13 -->
<g id="node8" class="node"><title>node13</title>
<polygon fill="white" stroke="black" points="1029,-251 1029,-771 1307,-771 1307,-251 1029,-251"/>
<text text-anchor="middle" x="1168" y="-754.4" font-family="Times Roman,serif" font-size="14.00">ak_sales_dealers</text>
<polyline fill="none" stroke="black" points="1029,-745 1307,-745 "/>
<text text-anchor="start" x="1037" y="-728.4" font-family="Times Roman,serif" font-size="14.00">&#45; id int [PA]</text>
<text text-anchor="start" x="1037" y="-710.4" font-family="Times Roman,serif" font-size="14.00">&#45; code varchar(25) [U]</text>
<text text-anchor="start" x="1037" y="-692.4" font-family="Times Roman,serif" font-size="14.00">&#45; name varchar(125) [N]</text>
<text text-anchor="start" x="1037" y="-674.4" font-family="Times Roman,serif" font-size="14.00">&#45; depot_id int [FK]</text>
<text text-anchor="start" x="1037" y="-656.4" font-family="Times Roman,serif" font-size="14.00">&#45; sales_officer_id int [FK]</text>
<text text-anchor="start" x="1037" y="-638.4" font-family="Times Roman,serif" font-size="14.00">&#45; credit_code varchar(25) [N]</text>
<text text-anchor="start" x="1037" y="-620.4" font-family="Times Roman,serif" font-size="14.00">&#45; credit_name varchar(125) [N]</text>
<text text-anchor="start" x="1037" y="-602.4" font-family="Times Roman,serif" font-size="14.00">&#45; address_street varchar(125) [N]</text>
<text text-anchor="start" x="1037" y="-584.4" font-family="Times Roman,serif" font-size="14.00">&#45; address_part2 varchar(125) [N]</text>
<text text-anchor="start" x="1037" y="-566.4" font-family="Times Roman,serif" font-size="14.00">&#45; address_city varchar(125) [N]</text>
<text text-anchor="start" x="1037" y="-548.4" font-family="Times Roman,serif" font-size="14.00">&#45; address_postal_code varchar(10) [N]</text>
<text text-anchor="start" x="1037" y="-530.4" font-family="Times Roman,serif" font-size="14.00">&#45; division_id int [FK]</text>
<text text-anchor="start" x="1037" y="-512.4" font-family="Times Roman,serif" font-size="14.00">&#45; geo_latitude decimal(12,8) [N]</text>
<text text-anchor="start" x="1037" y="-494.4" font-family="Times Roman,serif" font-size="14.00">&#45; geo_longitude decimal(12,8) [N]</text>
<text text-anchor="start" x="1037" y="-476.4" font-family="Times Roman,serif" font-size="14.00">&#45; mobileno varchar(15) [N]</text>
<text text-anchor="start" x="1037" y="-458.4" font-family="Times Roman,serif" font-size="14.00">&#45; mobilenoverified tinyint [N]</text>
<text text-anchor="start" x="1037" y="-440.4" font-family="Times Roman,serif" font-size="14.00">&#45; segmentation varchar(25) [N]</text>
<text text-anchor="start" x="1037" y="-422.4" font-family="Times Roman,serif" font-size="14.00">&#45; css_type varchar(25) [N]</text>
<text text-anchor="start" x="1037" y="-404.4" font-family="Times Roman,serif" font-size="14.00">&#45; css_date varchar(125) [N]</text>
<text text-anchor="start" x="1037" y="-386.4" font-family="Times Roman,serif" font-size="14.00">&#45; dealer_type varchar(25) [N]</text>
<text text-anchor="start" x="1037" y="-368.4" font-family="Times Roman,serif" font-size="14.00">&#45; town_tier varchar(25) [N]</text>
<text text-anchor="start" x="1037" y="-350.4" font-family="Times Roman,serif" font-size="14.00">&#45; tieup_type varchar(25) [N]</text>
<text text-anchor="start" x="1037" y="-332.4" font-family="Times Roman,serif" font-size="14.00">&#45; segment varchar(25)</text>
<text text-anchor="start" x="1037" y="-314.4" font-family="Times Roman,serif" font-size="14.00">&#45; attr5 varchar(25) [N]</text>
<text text-anchor="start" x="1037" y="-296.4" font-family="Times Roman,serif" font-size="14.00">&#45; attr9 varchar(25) [N]</text>
<text text-anchor="start" x="1037" y="-278.4" font-family="Times Roman,serif" font-size="14.00">&#45; created_at timestamp</text>
<text text-anchor="start" x="1037" y="-260.4" font-family="Times Roman,serif" font-size="14.00">&#45; updated_at timestamp</text>
</g>
<!-- node3&#45;&gt;node13 -->
<g id="edge4" class="edge"><title>node3&#45;&gt;node13</title>
<path fill="none" stroke="black" d="M688.44,-1141.81C706.666,-1023.67 741.929,-844.425 793,-800 868.836,-734.033 934.61,-824.033 1020.2,-774.746"/>
<polygon fill="black" stroke="black" points="1022.2,-777.623 1028.82,-769.348 1018.49,-771.691 1022.2,-777.623"/>
</g>
<!-- node12 -->
<g id="node25" class="node"><title>node12</title>
<polygon fill="white" stroke="black" points="1158.5,-17 1158.5,-213 1341.5,-213 1341.5,-17 1158.5,-17"/>
<text text-anchor="middle" x="1250" y="-196.4" font-family="Times Roman,serif" font-size="14.00">ak_sales_data</text>
<polyline fill="none" stroke="black" points="1158.5,-187 1341.5,-187 "/>
<text text-anchor="start" x="1166.5" y="-170.4" font-family="Times Roman,serif" font-size="14.00">&#45; id int [PA]</text>
<text text-anchor="start" x="1166.5" y="-152.4" font-family="Times Roman,serif" font-size="14.00">&#45; dealer_id int [FK]</text>
<text text-anchor="start" x="1166.5" y="-134.4" font-family="Times Roman,serif" font-size="14.00">&#45; division_id int [FK]</text>
<text text-anchor="start" x="1166.5" y="-116.4" font-family="Times Roman,serif" font-size="14.00">&#45; product_id int [FK]</text>
<text text-anchor="start" x="1166.5" y="-98.4" font-family="Times Roman,serif" font-size="14.00">&#45; date date</text>
<text text-anchor="start" x="1166.5" y="-80.4" font-family="Times Roman,serif" font-size="14.00">&#45; quantity decimal(12,3)</text>
<text text-anchor="start" x="1166.5" y="-62.4" font-family="Times Roman,serif" font-size="14.00">&#45; value decimal(12,3)</text>
<text text-anchor="start" x="1166.5" y="-44.4" font-family="Times Roman,serif" font-size="14.00">&#45; created_at timestamp</text>
<text text-anchor="start" x="1166.5" y="-26.4" font-family="Times Roman,serif" font-size="14.00">&#45; updated_at timestamp</text>
</g>
<!-- node13&#45;&gt;node12 -->
<g id="edge28" class="edge"><title>node13&#45;&gt;node12</title>
<path fill="none" stroke="black" d="M1221.89,-250.727C1223.84,-241.331 1225.74,-232.144 1227.58,-223.262"/>
<polygon fill="black" stroke="black" points="1231.03,-223.872 1229.63,-213.37 1224.18,-222.452 1231.03,-223.872"/>
</g>
<!-- node17 -->
<g id="node29" class="node"><title>node17</title>
<polygon fill="white" stroke="black" points="1359,-17 1359,-213 1551,-213 1551,-17 1359,-17"/>
<text text-anchor="middle" x="1455" y="-196.4" font-family="Times Roman,serif" font-size="14.00">ak_sales_targets</text>
<polyline fill="none" stroke="black" points="1359,-187 1551,-187 "/>
<text text-anchor="start" x="1367" y="-170.4" font-family="Times Roman,serif" font-size="14.00">&#45; id int [PA]</text>
<text text-anchor="start" x="1367" y="-152.4" font-family="Times Roman,serif" font-size="14.00">&#45; dealer_id int [FK,U]</text>
<text text-anchor="start" x="1367" y="-134.4" font-family="Times Roman,serif" font-size="14.00">&#45; division_id int [FK,U]</text>
<text text-anchor="start" x="1367" y="-116.4" font-family="Times Roman,serif" font-size="14.00">&#45; subbrand_id int [FK,U]</text>
<text text-anchor="start" x="1367" y="-98.4" font-family="Times Roman,serif" font-size="14.00">&#45; monthyear_id int [FK,U]</text>
<text text-anchor="start" x="1367" y="-80.4" font-family="Times Roman,serif" font-size="14.00">&#45; quantity decimal(12,3)</text>
<text text-anchor="start" x="1367" y="-62.4" font-family="Times Roman,serif" font-size="14.00">&#45; value decimal(12,3)</text>
<text text-anchor="start" x="1367" y="-44.4" font-family="Times Roman,serif" font-size="14.00">&#45; created_at timestamp</text>
<text text-anchor="start" x="1367" y="-26.4" font-family="Times Roman,serif" font-size="14.00">&#45; updated_at timestamp</text>
</g>
<!-- node13&#45;&gt;node17 -->
<g id="edge30" class="edge"><title>node13&#45;&gt;node17</title>
<path fill="none" stroke="black" d="M1307.15,-296.646C1318.39,-280.708 1329.75,-265.006 1341,-250 1348.19,-240.413 1355.83,-230.609 1363.64,-220.877"/>
<polygon fill="black" stroke="black" points="1366.36,-223.074 1369.92,-213.094 1360.91,-218.677 1366.36,-223.074"/>
</g>
<!-- node4 -->
<g id="node9" class="node"><title>node4</title>
<polygon fill="white" stroke="black" points="114.5,-1187 114.5,-1311 299.5,-1311 299.5,-1187 114.5,-1187"/>
<text text-anchor="middle" x="207" y="-1294.4" font-family="Times Roman,serif" font-size="14.00">ak_identity_types</text>
<polyline fill="none" stroke="black" points="114.5,-1285 299.5,-1285 "/>
<text text-anchor="start" x="122.5" y="-1268.4" font-family="Times Roman,serif" font-size="14.00">&#45; ID int [PA]</text>
<text text-anchor="start" x="122.5" y="-1250.4" font-family="Times Roman,serif" font-size="14.00">&#45; code varchar(24) [U]</text>
<text text-anchor="start" x="122.5" y="-1232.4" font-family="Times Roman,serif" font-size="14.00">&#45; name varchar(125) [N]</text>
<text text-anchor="start" x="122.5" y="-1214.4" font-family="Times Roman,serif" font-size="14.00">&#45; created_at timestamp</text>
<text text-anchor="start" x="122.5" y="-1196.4" font-family="Times Roman,serif" font-size="14.00">&#45; updated_at timestamp</text>
</g>
<!-- node20 -->
<g id="node11" class="node"><title>node20</title>
<polygon fill="white" stroke="black" points="115,-890 115,-1014 323,-1014 323,-890 115,-890"/>
<text text-anchor="middle" x="219" y="-997.4" font-family="Times Roman,serif" font-size="14.00">ak_users</text>
<polyline fill="none" stroke="black" points="115,-988 323,-988 "/>
<text text-anchor="start" x="123" y="-971.4" font-family="Times Roman,serif" font-size="14.00">&#45; ID int [PA]</text>
<text text-anchor="start" x="123" y="-953.4" font-family="Times Roman,serif" font-size="14.00">&#45; identity_id int [U]</text>
<text text-anchor="start" x="123" y="-935.4" font-family="Times Roman,serif" font-size="14.00">&#45; identity_type_id int [FK,U]</text>
<text text-anchor="start" x="123" y="-917.4" font-family="Times Roman,serif" font-size="14.00">&#45; created_at timestamp</text>
<text text-anchor="start" x="123" y="-899.4" font-family="Times Roman,serif" font-size="14.00">&#45; updated_at timestamp</text>
</g>
<!-- node4&#45;&gt;node20 -->
<g id="edge6" class="edge"><title>node4&#45;&gt;node20</title>
<path fill="none" stroke="black" d="M209.516,-1186.74C211.432,-1139.32 214.073,-1073.94 216.082,-1024.22"/>
<polygon fill="black" stroke="black" points="219.581,-1024.31 216.488,-1014.18 212.587,-1024.03 219.581,-1024.31"/>
</g>
<!-- node20&#45;&gt;node1 -->
<g id="edge50" class="edge"><title>node20&#45;&gt;node1</title>
<path fill="none" stroke="black" d="M237.209,-889.751C254.995,-828.949 282.706,-734.216 305.964,-654.706"/>
<polygon fill="black" stroke="black" points="309.328,-655.669 308.777,-645.088 302.61,-653.704 309.328,-655.669"/>
</g>
<!-- node20&#45;&gt;node21 -->
<g id="edge52" class="edge"><title>node20&#45;&gt;node21</title>
<path fill="none" stroke="black" d="M200.932,-889.751C179.068,-814.422 142.088,-687.014 117.121,-600.996"/>
<polygon fill="black" stroke="black" points="120.439,-599.868 114.29,-591.24 113.716,-601.82 120.439,-599.868"/>
</g>
<!-- node6 -->
<g id="node12" class="node"><title>node6</title>
<polygon fill="white" stroke="black" points="1855,-1589 1855,-1713 2055,-1713 2055,-1589 1855,-1589"/>
<text text-anchor="middle" x="1955" y="-1696.4" font-family="Times Roman,serif" font-size="14.00">ak_product_brands</text>
<polyline fill="none" stroke="black" points="1855,-1687 2055,-1687 "/>
<text text-anchor="start" x="1863" y="-1670.4" font-family="Times Roman,serif" font-size="14.00">&#45; id int [PA]</text>
<text text-anchor="start" x="1863" y="-1652.4" font-family="Times Roman,serif" font-size="14.00">&#45; code varchar(25) [U]</text>
<text text-anchor="start" x="1863" y="-1634.4" font-family="Times Roman,serif" font-size="14.00">&#45; name varchar(125) [U,N]</text>
<text text-anchor="start" x="1863" y="-1616.4" font-family="Times Roman,serif" font-size="14.00">&#45; created_at timestamp</text>
<text text-anchor="start" x="1863" y="-1598.4" font-family="Times Roman,serif" font-size="14.00">&#45; updated_at timestamp</text>
</g>
<!-- node7 -->
<g id="node14" class="node"><title>node7</title>
<polygon fill="white" stroke="black" points="1845,-1409 1845,-1551 2045,-1551 2045,-1409 1845,-1409"/>
<text text-anchor="middle" x="1945" y="-1534.4" font-family="Times Roman,serif" font-size="14.00">ak_product_clusters</text>
<polyline fill="none" stroke="black" points="1845,-1525 2045,-1525 "/>
<text text-anchor="start" x="1853" y="-1508.4" font-family="Times Roman,serif" font-size="14.00">&#45; id int [PA]</text>
<text text-anchor="start" x="1853" y="-1490.4" font-family="Times Roman,serif" font-size="14.00">&#45; code varchar(25) [U]</text>
<text text-anchor="start" x="1853" y="-1472.4" font-family="Times Roman,serif" font-size="14.00">&#45; brand_id int [FK]</text>
<text text-anchor="start" x="1853" y="-1454.4" font-family="Times Roman,serif" font-size="14.00">&#45; name varchar(125) [U,N]</text>
<text text-anchor="start" x="1853" y="-1436.4" font-family="Times Roman,serif" font-size="14.00">&#45; created_at timestamp</text>
<text text-anchor="start" x="1853" y="-1418.4" font-family="Times Roman,serif" font-size="14.00">&#45; updated_at timestamp</text>
</g>
<!-- node6&#45;&gt;node7 -->
<g id="edge8" class="edge"><title>node6&#45;&gt;node7</title>
<path fill="none" stroke="black" d="M1951.36,-1588.78C1950.84,-1579.8 1950.29,-1570.46 1949.75,-1561.18"/>
<polygon fill="black" stroke="black" points="1953.24,-1560.94 1949.16,-1551.16 1946.25,-1561.34 1953.24,-1560.94"/>
</g>
<!-- node10 -->
<g id="node16" class="node"><title>node10</title>
<polygon fill="white" stroke="black" points="1817.5,-368 1817.5,-654 2046.5,-654 2046.5,-368 1817.5,-368"/>
<text text-anchor="middle" x="1932" y="-637.4" font-family="Times Roman,serif" font-size="14.00">ak_product_skus</text>
<polyline fill="none" stroke="black" points="1817.5,-628 2046.5,-628 "/>
<text text-anchor="start" x="1825.5" y="-611.4" font-family="Times Roman,serif" font-size="14.00">&#45; id int [PA]</text>
<text text-anchor="start" x="1825.5" y="-593.4" font-family="Times Roman,serif" font-size="14.00">&#45; code varchar(25) [U]</text>
<text text-anchor="start" x="1825.5" y="-575.4" font-family="Times Roman,serif" font-size="14.00">&#45; name varchar(125) [N]</text>
<text text-anchor="start" x="1825.5" y="-557.4" font-family="Times Roman,serif" font-size="14.00">&#45; shortcode varchar(125) [U,N]</text>
<text text-anchor="start" x="1825.5" y="-539.4" font-family="Times Roman,serif" font-size="14.00">&#45; brand_id int [FK]</text>
<text text-anchor="start" x="1825.5" y="-521.4" font-family="Times Roman,serif" font-size="14.00">&#45; cluster_id int [FK]</text>
<text text-anchor="start" x="1825.5" y="-503.4" font-family="Times Roman,serif" font-size="14.00">&#45; subbrand_id int [FK]</text>
<text text-anchor="start" x="1825.5" y="-485.4" font-family="Times Roman,serif" font-size="14.00">&#45; group_id int [FK]</text>
<text text-anchor="start" x="1825.5" y="-467.4" font-family="Times Roman,serif" font-size="14.00">&#45; pack_type_id int [FK]</text>
<text text-anchor="start" x="1825.5" y="-449.4" font-family="Times Roman,serif" font-size="14.00">&#45; packsize decimal(8,3)</text>
<text text-anchor="start" x="1825.5" y="-431.4" font-family="Times Roman,serif" font-size="14.00">&#45; dpl decimal(10,2)</text>
<text text-anchor="start" x="1825.5" y="-413.4" font-family="Times Roman,serif" font-size="14.00">&#45; mrp decimal(10,2)</text>
<text text-anchor="start" x="1825.5" y="-395.4" font-family="Times Roman,serif" font-size="14.00">&#45; created_at timestamp</text>
<text text-anchor="start" x="1825.5" y="-377.4" font-family="Times Roman,serif" font-size="14.00">&#45; updated_at timestamp</text>
</g>
<!-- node6&#45;&gt;node10 -->
<g id="edge10" class="edge"><title>node6&#45;&gt;node10</title>
<path fill="none" stroke="black" d="M2046.82,-1588.86C2049.52,-1585.08 2051.93,-1581.12 2054,-1577 2091.78,-1501.58 2167.84,-1426.01 2045,-800 2036.06,-754.443 2020.33,-706.809 2003.4,-663.658"/>
<polygon fill="black" stroke="black" points="2006.61,-662.235 1999.66,-654.234 2000.1,-664.82 2006.61,-662.235"/>
</g>
<!-- node7&#45;&gt;node10 -->
<g id="edge12" class="edge"><title>node7&#45;&gt;node10</title>
<path fill="none" stroke="black" d="M2019.79,-1408.76C2021.35,-1405.89 2022.76,-1402.97 2024,-1400 2075.45,-1276.99 2049.29,-931.626 2028,-800 2020.7,-754.875 2007.38,-707.266 1992.94,-663.997"/>
<polygon fill="black" stroke="black" points="1996.17,-662.609 1989.65,-654.257 1989.54,-664.852 1996.17,-662.609"/>
</g>
<!-- node11 -->
<g id="node19" class="node"><title>node11</title>
<polygon fill="white" stroke="black" points="1830.5,-1178 1830.5,-1320 2015.5,-1320 2015.5,-1178 1830.5,-1178"/>
<text text-anchor="middle" x="1923" y="-1303.4" font-family="Times Roman,serif" font-size="14.00">ak_product_sub_brands</text>
<polyline fill="none" stroke="black" points="1830.5,-1294 2015.5,-1294 "/>
<text text-anchor="start" x="1838.5" y="-1277.4" font-family="Times Roman,serif" font-size="14.00">&#45; id int [PA]</text>
<text text-anchor="start" x="1838.5" y="-1259.4" font-family="Times Roman,serif" font-size="14.00">&#45; code varchar(25) [U]</text>
<text text-anchor="start" x="1838.5" y="-1241.4" font-family="Times Roman,serif" font-size="14.00">&#45; cluster_id int [FK]</text>
<text text-anchor="start" x="1838.5" y="-1223.4" font-family="Times Roman,serif" font-size="14.00">&#45; name varchar(125) [N]</text>
<text text-anchor="start" x="1838.5" y="-1205.4" font-family="Times Roman,serif" font-size="14.00">&#45; created_at timestamp</text>
<text text-anchor="start" x="1838.5" y="-1187.4" font-family="Times Roman,serif" font-size="14.00">&#45; updated_at timestamp</text>
</g>
<!-- node7&#45;&gt;node11 -->
<g id="edge14" class="edge"><title>node7&#45;&gt;node11</title>
<path fill="none" stroke="black" d="M1938.22,-1408.81C1935.86,-1384 1933.19,-1355.97 1930.75,-1330.4"/>
<polygon fill="black" stroke="black" points="1934.23,-1329.98 1929.8,-1320.36 1927.26,-1330.64 1934.23,-1329.98"/>
</g>
<!-- node10&#45;&gt;node12 -->
<g id="edge20" class="edge"><title>node10&#45;&gt;node12</title>
<path fill="none" stroke="black" d="M1817.13,-409.246C1748.09,-353.577 1655.84,-288.327 1563,-250 1477.2,-214.579 1438.06,-254.952 1350.78,-213.87"/>
<polygon fill="black" stroke="black" points="1352.13,-210.633 1341.61,-209.342 1349.03,-216.909 1352.13,-210.633"/>
</g>
<!-- node11&#45;&gt;node10 -->
<g id="edge24" class="edge"><title>node11&#45;&gt;node10</title>
<path fill="none" stroke="black" d="M1975.99,-1177.94C1991.37,-1153.28 2006.14,-1124.61 2014,-1096 2053.5,-952.327 2021.75,-783.304 1986.9,-663.984"/>
<polygon fill="black" stroke="black" points="1990.15,-662.635 1983.96,-654.04 1983.44,-664.622 1990.15,-662.635"/>
</g>
<!-- node8 -->
<g id="node20" class="node"><title>node8</title>
<polygon fill="white" stroke="black" points="1820.5,-881 1820.5,-1023 2005.5,-1023 2005.5,-881 1820.5,-881"/>
<text text-anchor="middle" x="1913" y="-1006.4" font-family="Times Roman,serif" font-size="14.00">ak_product_groups</text>
<polyline fill="none" stroke="black" points="1820.5,-997 2005.5,-997 "/>
<text text-anchor="start" x="1828.5" y="-980.4" font-family="Times Roman,serif" font-size="14.00">&#45; id int [PA]</text>
<text text-anchor="start" x="1828.5" y="-962.4" font-family="Times Roman,serif" font-size="14.00">&#45; code varchar(25) [U]</text>
<text text-anchor="start" x="1828.5" y="-944.4" font-family="Times Roman,serif" font-size="14.00">&#45; subbrand_id int [FK]</text>
<text text-anchor="start" x="1828.5" y="-926.4" font-family="Times Roman,serif" font-size="14.00">&#45; name varchar(125) [N]</text>
<text text-anchor="start" x="1828.5" y="-908.4" font-family="Times Roman,serif" font-size="14.00">&#45; created_at timestamp</text>
<text text-anchor="start" x="1828.5" y="-890.4" font-family="Times Roman,serif" font-size="14.00">&#45; updated_at timestamp</text>
</g>
<!-- node11&#45;&gt;node8 -->
<g id="edge22" class="edge"><title>node11&#45;&gt;node8</title>
<path fill="none" stroke="black" d="M1920.6,-1177.86C1919.14,-1134.31 1917.26,-1078.43 1915.73,-1033.15"/>
<polygon fill="black" stroke="black" points="1919.23,-1032.95 1915.39,-1023.07 1912.23,-1033.18 1919.23,-1032.95"/>
</g>
<!-- node11&#45;&gt;node17 -->
<g id="edge26" class="edge"><title>node11&#45;&gt;node17</title>
<path fill="none" stroke="black" d="M1830.18,-1232.44C1753.91,-1213.51 1650.22,-1174.36 1598,-1096 1545.82,-1017.7 1592.53,-338.294 1560,-250 1556.46,-240.393 1551.97,-230.925 1546.85,-221.733"/>
<polygon fill="black" stroke="black" points="1549.82,-219.88 1541.76,-213.009 1543.77,-223.409 1549.82,-219.88"/>
</g>
<!-- node8&#45;&gt;node10 -->
<g id="edge16" class="edge"><title>node8&#45;&gt;node10</title>
<path fill="none" stroke="black" d="M1916.07,-880.656C1918.58,-822.45 1922.21,-738.14 1925.38,-664.731"/>
<polygon fill="black" stroke="black" points="1928.89,-664.59 1925.82,-654.449 1921.89,-664.289 1928.89,-664.59"/>
</g>
<!-- node9 -->
<g id="node22" class="node"><title>node9</title>
<polygon fill="white" stroke="black" points="1606.5,-890 1606.5,-1014 1803.5,-1014 1803.5,-890 1606.5,-890"/>
<text text-anchor="middle" x="1705" y="-997.4" font-family="Times Roman,serif" font-size="14.00">ak_product_pack_types</text>
<polyline fill="none" stroke="black" points="1606.5,-988 1803.5,-988 "/>
<text text-anchor="start" x="1614.5" y="-971.4" font-family="Times Roman,serif" font-size="14.00">&#45; id int [PA]</text>
<text text-anchor="start" x="1614.5" y="-953.4" font-family="Times Roman,serif" font-size="14.00">&#45; type varchar(25) [U]</text>
<text text-anchor="start" x="1614.5" y="-935.4" font-family="Times Roman,serif" font-size="14.00">&#45; reserved varchar(25) [N]</text>
<text text-anchor="start" x="1614.5" y="-917.4" font-family="Times Roman,serif" font-size="14.00">&#45; created_at timestamp</text>
<text text-anchor="start" x="1614.5" y="-899.4" font-family="Times Roman,serif" font-size="14.00">&#45; updated_at timestamp</text>
</g>
<!-- node9&#45;&gt;node10 -->
<g id="edge18" class="edge"><title>node9&#45;&gt;node10</title>
<path fill="none" stroke="black" d="M1737.04,-889.751C1767.23,-831.111 1813.66,-740.912 1853.63,-663.245"/>
<polygon fill="black" stroke="black" points="1856.76,-664.817 1858.23,-654.324 1850.54,-661.613 1856.76,-664.817"/>
</g>
<!-- node14 -->
<g id="node32" class="node"><title>node14</title>
<polygon fill="white" stroke="black" points="818,-881 818,-1023 1000,-1023 1000,-881 818,-881"/>
<text text-anchor="middle" x="909" y="-1006.4" font-family="Times Roman,serif" font-size="14.00">ak_sales_depots</text>
<polyline fill="none" stroke="black" points="818,-997 1000,-997 "/>
<text text-anchor="start" x="826" y="-980.4" font-family="Times Roman,serif" font-size="14.00">&#45; id int [PA]</text>
<text text-anchor="start" x="826" y="-962.4" font-family="Times Roman,serif" font-size="14.00">&#45; zone_id int [FK]</text>
<text text-anchor="start" x="826" y="-944.4" font-family="Times Roman,serif" font-size="14.00">&#45; code varchar(25) [U]</text>
<text text-anchor="start" x="826" y="-926.4" font-family="Times Roman,serif" font-size="14.00">&#45; name varchar(125)</text>
<text text-anchor="start" x="826" y="-908.4" font-family="Times Roman,serif" font-size="14.00">&#45; created_at timestamp</text>
<text text-anchor="start" x="826" y="-890.4" font-family="Times Roman,serif" font-size="14.00">&#45; updated_at timestamp</text>
</g>
<!-- node14&#45;&gt;node13 -->
<g id="edge32" class="edge"><title>node14&#45;&gt;node13</title>
<path fill="none" stroke="black" d="M956.471,-880.91C976.441,-850.405 999.776,-813.966 1023.57,-774.346"/>
<polygon fill="black" stroke="black" points="1026.85,-775.682 1028.97,-765.303 1020.84,-772.091 1026.85,-775.682"/>
</g>
<!-- node15 -->
<g id="node34" class="node"><title>node15</title>
<polygon fill="white" stroke="black" points="1365,-440 1365,-582 1551,-582 1551,-440 1365,-440"/>
<text text-anchor="middle" x="1458" y="-565.4" font-family="Times Roman,serif" font-size="14.00">ak_sales_monthyear</text>
<polyline fill="none" stroke="black" points="1365,-556 1551,-556 "/>
<text text-anchor="start" x="1373" y="-539.4" font-family="Times Roman,serif" font-size="14.00">&#45; ID int [PA]</text>
<text text-anchor="start" x="1373" y="-521.4" font-family="Times Roman,serif" font-size="14.00">&#45; yyyymm int [U]</text>
<text text-anchor="start" x="1373" y="-503.4" font-family="Times Roman,serif" font-size="14.00">&#45; month int</text>
<text text-anchor="start" x="1373" y="-485.4" font-family="Times Roman,serif" font-size="14.00">&#45; year int</text>
<text text-anchor="start" x="1373" y="-467.4" font-family="Times Roman,serif" font-size="14.00">&#45; monthshort varchar(3)</text>
<text text-anchor="start" x="1373" y="-449.4" font-family="Times Roman,serif" font-size="14.00">&#45; monthlong varchar(10)</text>
</g>
<!-- node15&#45;&gt;node17 -->
<g id="edge34" class="edge"><title>node15&#45;&gt;node17</title>
<path fill="none" stroke="black" d="M1457.46,-439.746C1457,-379.47 1456.34,-292.158 1455.82,-223.246"/>
<polygon fill="black" stroke="black" points="1459.32,-223.191 1455.74,-213.217 1452.32,-223.244 1459.32,-223.191"/>
</g>
<!-- node16 -->
<g id="node36" class="node"><title>node16</title>
<polygon fill="white" stroke="black" points="805,-1418 805,-1542 1005,-1542 1005,-1418 805,-1418"/>
<text text-anchor="middle" x="905" y="-1525.4" font-family="Times Roman,serif" font-size="14.00">ak_sales_regions</text>
<polyline fill="none" stroke="black" points="805,-1516 1005,-1516 "/>
<text text-anchor="start" x="813" y="-1499.4" font-family="Times Roman,serif" font-size="14.00">&#45; id int [PA]</text>
<text text-anchor="start" x="813" y="-1481.4" font-family="Times Roman,serif" font-size="14.00">&#45; code varchar(25) [U]</text>
<text text-anchor="start" x="813" y="-1463.4" font-family="Times Roman,serif" font-size="14.00">&#45; name varchar(125) [U,N]</text>
<text text-anchor="start" x="813" y="-1445.4" font-family="Times Roman,serif" font-size="14.00">&#45; created_at timestamp</text>
<text text-anchor="start" x="813" y="-1427.4" font-family="Times Roman,serif" font-size="14.00">&#45; updated_at timestamp</text>
</g>
<!-- node16&#45;&gt;node2 -->
<g id="edge36" class="edge"><title>node16&#45;&gt;node2</title>
<path fill="none" stroke="black" d="M804.622,-1464.22C717.38,-1449.18 598.773,-1425.16 558,-1400 545.29,-1392.16 533.264,-1382.56 522.062,-1372.05"/>
<polygon fill="black" stroke="black" points="524.433,-1369.48 514.82,-1365.02 519.557,-1374.5 524.433,-1369.48"/>
</g>
<!-- node19 -->
<g id="node39" class="node"><title>node19</title>
<polygon fill="white" stroke="black" points="812.5,-1187 812.5,-1311 997.5,-1311 997.5,-1187 812.5,-1187"/>
<text text-anchor="middle" x="905" y="-1294.4" font-family="Times Roman,serif" font-size="14.00">ak_sales_zones</text>
<polyline fill="none" stroke="black" points="812.5,-1285 997.5,-1285 "/>
<text text-anchor="start" x="820.5" y="-1268.4" font-family="Times Roman,serif" font-size="14.00">&#45; id int [PA]</text>
<text text-anchor="start" x="820.5" y="-1250.4" font-family="Times Roman,serif" font-size="14.00">&#45; region_id int [FK]</text>
<text text-anchor="start" x="820.5" y="-1232.4" font-family="Times Roman,serif" font-size="14.00">&#45; name varchar(125) [U]</text>
<text text-anchor="start" x="820.5" y="-1214.4" font-family="Times Roman,serif" font-size="14.00">&#45; created_at timestamp</text>
<text text-anchor="start" x="820.5" y="-1196.4" font-family="Times Roman,serif" font-size="14.00">&#45; updated_at timestamp</text>
</g>
<!-- node16&#45;&gt;node19 -->
<g id="edge38" class="edge"><title>node16&#45;&gt;node19</title>
<path fill="none" stroke="black" d="M905,-1417.79C905,-1388.14 905,-1352.48 905,-1321.59"/>
<polygon fill="black" stroke="black" points="908.5,-1321.32 905,-1311.32 901.5,-1321.32 908.5,-1321.32"/>
</g>
<!-- node19&#45;&gt;node5 -->
<g id="edge46" class="edge"><title>node19&#45;&gt;node5</title>
<path fill="none" stroke="black" d="M849.402,-1186.83C831.983,-1168.5 812.263,-1148.84 793,-1132 761.937,-1104.84 726.954,-1077.57 693.299,-1052.76"/>
<polygon fill="black" stroke="black" points="695.366,-1049.94 685.233,-1046.85 691.225,-1055.58 695.366,-1049.94"/>
</g>
<!-- node19&#45;&gt;node14 -->
<g id="edge48" class="edge"><title>node19&#45;&gt;node14</title>
<path fill="none" stroke="black" d="M905.839,-1186.74C906.44,-1142.12 907.255,-1081.59 907.907,-1033.18"/>
<polygon fill="black" stroke="black" points="911.408,-1033.09 908.043,-1023.04 904.409,-1032.99 911.408,-1033.09"/>
</g>
<!-- node18 -->
<g id="node40" class="node"><title>node18</title>
<polygon fill="white" stroke="black" points="1223,-881 1223,-1023 1429,-1023 1429,-881 1223,-881"/>
<text text-anchor="middle" x="1326" y="-1006.4" font-family="Times Roman,serif" font-size="14.00">ak_sales_verticals</text>
<polyline fill="none" stroke="black" points="1223,-997 1429,-997 "/>
<text text-anchor="start" x="1231" y="-980.4" font-family="Times Roman,serif" font-size="14.00">&#45; ID int [PA]</text>
<text text-anchor="start" x="1231" y="-962.4" font-family="Times Roman,serif" font-size="14.00">&#45; code varchar(16) [U]</text>
<text text-anchor="start" x="1231" y="-944.4" font-family="Times Roman,serif" font-size="14.00">&#45; name varchar(125) [N]</text>
<text text-anchor="start" x="1231" y="-926.4" font-family="Times Roman,serif" font-size="14.00">&#45; segment varchar(125) [N]</text>
<text text-anchor="start" x="1231" y="-908.4" font-family="Times Roman,serif" font-size="14.00">&#45; created_at timestamp</text>
<text text-anchor="start" x="1231" y="-890.4" font-family="Times Roman,serif" font-size="14.00">&#45; updated_at timestamp</text>
</g>
<!-- node18&#45;&gt;node13 -->
<g id="edge42" class="edge"><title>node18&#45;&gt;node13</title>
<path fill="none" stroke="black" d="M1300.44,-880.656C1290.26,-852.236 1277.85,-817.593 1264.75,-781.034"/>
<polygon fill="black" stroke="black" points="1267.89,-779.424 1261.22,-771.191 1261.3,-781.785 1267.89,-779.424"/>
</g>
<!-- node18&#45;&gt;node12 -->
<g id="edge40" class="edge"><title>node18&#45;&gt;node12</title>
<path fill="none" stroke="black" d="M1328.91,-880.925C1334.58,-727.172 1344.2,-368.033 1316,-250 1313.82,-240.866 1310.94,-231.632 1307.62,-222.506"/>
<polygon fill="black" stroke="black" points="1310.84,-221.132 1304,-213.044 1304.3,-223.634 1310.84,-221.132"/>
</g>
<!-- node18&#45;&gt;node17 -->
<g id="edge44" class="edge"><title>node18&#45;&gt;node17</title>
<path fill="none" stroke="black" d="M1327.93,-880.824C1332.75,-708.225 1345.69,-279.367 1356,-250 1359.36,-240.441 1363.64,-230.982 1368.52,-221.773"/>
<polygon fill="black" stroke="black" points="1371.59,-223.466 1373.38,-213.025 1365.47,-220.066 1371.59,-223.466"/>
</g>
</g>
</svg>
